<svg width="12" height="12" viewBox="0 0 12 12" fill="none" xmlns="http://www.w3.org/2000/svg">
<path d="M6.3533 11.3535L9.8533 7.8535C9.94437 7.7592 9.99477 7.6329 9.99363 7.5018C9.99249 7.3707 9.93991 7.24529 9.84721 7.15259C9.7545 7.05989 9.6291 7.0073 9.498 7.00616C9.3669 7.00502 9.2406 7.05542 9.1463 7.1465L6.4998 9.793L6.4998 1C6.4998 0.867392 6.44712 0.740215 6.35335 0.646446C6.25958 0.552678 6.1324 0.5 5.9998 0.5C5.86719 0.5 5.74001 0.552678 5.64624 0.646446C5.55247 0.740215 5.4998 0.867392 5.4998 1L5.4998 9.793L2.8533 7.1465C2.80717 7.09874 2.752 7.06065 2.691 7.03445C2.63 7.00824 2.56439 6.99445 2.498 6.99387C2.43161 6.9933 2.36577 7.00595 2.30432 7.03109C2.24287 7.05623 2.18705 7.09336 2.1401 7.1403C2.09315 7.18725 2.05603 7.24307 2.03088 7.30452C2.00574 7.36597 1.99309 7.43181 1.99367 7.4982C1.99425 7.56459 2.00804 7.6302 2.03425 7.6912C2.06045 7.7522 2.09854 7.80738 2.1463 7.8535L5.6463 11.3535C5.74006 11.4472 5.86721 11.4999 5.9998 11.4999C6.13238 11.4999 6.25953 11.4472 6.3533 11.3535Z" fill="white" fill-opacity="0.6"/>
</svg>
